<?xml version="1.0" encoding="UTF-8"?>
<svg xmlns="http://www.w3.org/2000/svg" xmlns:xlink="http://www.w3.org/1999/xlink" viewBox="0 0 760 402" role="img" aria-label="Kontakty se zapínají v posledním kroku průvodce, spolu s poštou" font-size="11.5" font-family="Inter, Cantarell, 'Segoe UI', Helvetica, Arial, sans-serif"><rect width="100%" height="100%" fill="#ffffff"/><defs>
<symbol id="i-search" viewBox="0 0 16 16"><circle cx="7" cy="7" r="4.5"/><path d="M10.5 10.5 14 14"/></symbol>
<symbol id="i-plus" viewBox="0 0 16 16"><path d="M8 3v10M3 8h10"/></symbol>
<symbol id="i-edit" viewBox="0 0 16 16"><path d="M3 13l.9-3.4 7.2-7.2 2.5 2.5-7.2 7.2z"/></symbol>
<symbol id="i-mail" viewBox="0 0 16 16"><rect x="2" y="3.5" width="12" height="9" rx="1.5"/><path d="M2.6 4.6 8 8.6l5.4-4"/></symbol>
<symbol id="i-more" viewBox="0 0 16 16"><path d="M3.5 8h.01M8 8h.01M12.5 8h.01" stroke-width="2.6"/></symbol>
<symbol id="i-morev" viewBox="0 0 16 16"><path d="M8 3.5h.01M8 8h.01M8 12.5h.01" stroke-width="2.6"/></symbol>
<symbol id="i-back" viewBox="0 0 16 16"><path d="M10 3 5 8l5 5"/></symbol>
<symbol id="i-person" viewBox="0 0 16 16"><circle cx="8" cy="5.5" r="2.8"/><path d="M2.8 14c.8-3 2.8-4.5 5.2-4.5s4.4 1.5 5.2 4.5"/></symbol>
<symbol id="i-people" viewBox="0 0 16 16"><circle cx="6" cy="5.5" r="2.4"/><path d="M1.8 13.5c.6-2.6 2.2-3.9 4.2-3.9s3.6 1.3 4.2 3.9M10.2 3.4a2.3 2.3 0 0 1 0 4.4M11.6 9.8c1.3.4 2.2 1.6 2.6 3.7"/></symbol>
<symbol id="i-sync" viewBox="0 0 16 16"><path d="M13 6A5.3 5.3 0 0 0 3.2 5.2M3 10a5.3 5.3 0 0 0 9.8.8M13.2 2.6V6H9.8M2.8 13.4V10h3.4"/></symbol>
<symbol id="i-lock" viewBox="0 0 16 16"><rect x="3.5" y="7" width="9" height="7" rx="1.5"/><path d="M5.5 7V5a2.5 2.5 0 0 1 5 0v2"/></symbol>
<symbol id="i-trash" viewBox="0 0 16 16"><path d="M3 4.5h10M6.5 4.5V3h3v1.5M4.5 4.5l.7 9h5.6l.7-9"/></symbol>
<symbol id="i-sidebar" viewBox="0 0 16 16"><rect x="2" y="3" width="12" height="10" rx="1.5"/><path d="M6 3v10"/></symbol>
<symbol id="i-book" viewBox="0 0 16 16"><path d="M3.5 3h7A1.5 1.5 0 0 1 12 4.5V14H5a1.5 1.5 0 0 1-1.5-1.5zM3.5 12.5A1.5 1.5 0 0 1 5 11h7"/></symbol>
<symbol id="i-clock" viewBox="0 0 16 16"><circle cx="8" cy="8" r="5.6"/><path d="M8 5v3l2 1.5"/></symbol>
<symbol id="i-offline" viewBox="0 0 16 16"><path d="M4.2 12.5h7a2.8 2.8 0 0 0 .6-5.5A4 4 0 0 0 4.3 7.2a2.7 2.7 0 0 0-.1 5.3zM2 2l12 12"/></symbol>
<symbol id="i-cloud" viewBox="0 0 16 16"><path d="M4.2 12.5h7a2.8 2.8 0 0 0 .6-5.5A4 4 0 0 0 4.3 7.2a2.7 2.7 0 0 0-.1 5.3z"/></symbol>
<symbol id="i-info" viewBox="0 0 16 16"><circle cx="8" cy="8" r="5.8"/><path d="M8 7.2v3.6M8 5.1h.01"/></symbol>
<symbol id="i-check" viewBox="0 0 16 16"><path d="M3.5 8.5l3 3 6-7"/></symbol>
<symbol id="i-send" viewBox="0 0 16 16"><path d="M2.5 8 13.5 2.8 10.8 13.2 7.6 9.4zM7.6 9.4 13.5 2.8"/></symbol>
</defs><text x="24" y="28" font-size="15" font-weight="600" fill="#1f1f1f">Kontakty se zapínají v posledním kroku průvodce, spolu s poštou</text><text x="24" y="48" fill="#5c5c5c">GTK · Přidat účet · vlevo nalezený CardDAV, vpravo další varianty téhož kroku</text><clipPath id="clip1"><rect x="24" y="64" width="340" height="252" rx="10"/></clipPath><g clip-path="url(#clip1)"><rect x="24" y="64" width="340" height="252" fill="#ffffff"/><line x1="24" y1="104" x2="364" y2="104" stroke="#e4e3df" stroke-width="1"/><rect x="32" y="71" width="50" height="26" rx="6" fill="none" stroke="#b9b7ad" stroke-width="1"/><text x="57" y="88" font-size="11.5" font-weight="600" text-anchor="middle" fill="#1f1f1f">Zpět</text><text x="194" y="89" font-size="12" font-weight="700" text-anchor="middle" fill="#1f1f1f">Přidat účet</text><rect x="298" y="71" width="58" height="26" rx="6" fill="#2b76d2" fill-opacity="0.15" stroke="#2b76d2" stroke-width="1.5"/><text x="327" y="88" font-size="11.5" font-weight="600" text-anchor="middle" fill="#1f1f1f">Hotovo</text><circle cx="194" cy="134" r="18" fill="#1e9e3e" fill-opacity="0.15"/><use xlink:href="#i-check" x="185" y="125" width="18" height="18" fill="none" stroke="#1e9e3e" stroke-width="1.8" stroke-linecap="round" stroke-linejoin="round"/><text x="194" y="174" font-size="12" font-weight="700" text-anchor="middle" fill="#1f1f1f">Účet osobni@fastmail.example je připravený</text><text x="40" y="204" font-weight="700" fill="#1f1f1f">Synchronizovat</text><rect x="40" y="212" width="308" height="88" rx="8" fill="#ffffff" stroke="#b9b7ad" stroke-width="1"/><text x="52" y="230" fill="#1f1f1f">Pošta</text><text x="52" y="246" font-size="10.5" fill="#5c5c5c">IMAP · imap.fastmail.com</text><g opacity="0.45"><rect x="304" y="225" width="32" height="18" rx="9" fill="#2b76d2"/><circle cx="327" cy="234" r="7" fill="#ffffff"/></g><line x1="40" y1="256" x2="348" y2="256" stroke="#e4e3df" stroke-width="1"/><text x="52" y="274" fill="#1f1f1f">Kontakty</text><text x="52" y="290" font-size="10.5" fill="#5c5c5c">2 adresáře · carddav.fastmail.com</text><g><rect x="304" y="269" width="32" height="18" rx="9" fill="#2b76d2"/><circle cx="327" cy="278" r="7" fill="#ffffff"/></g></g><rect x="24" y="64" width="340" height="252" rx="10" fill="none" stroke="#b9b7ad" stroke-width="1.25"/><clipPath id="clip2"><rect x="380" y="64" width="356" height="318" rx="10"/></clipPath><g clip-path="url(#clip2)"><rect x="380" y="64" width="356" height="318" fill="#ffffff"/><line x1="380" y1="104" x2="736" y2="104" stroke="#e4e3df" stroke-width="1"/><text x="558" y="89" font-size="12" font-weight="700" text-anchor="middle" fill="#1f1f1f">Další varianty téhož kroku</text><text x="396" y="128" font-weight="700" fill="#1f1f1f">Microsoft 365 / Outlook.com</text><rect x="396" y="136" width="324" height="44" rx="8" fill="#ffffff" stroke="#b9b7ad" stroke-width="1"/><text x="408" y="154" fill="#1f1f1f">Kontakty</text><text x="408" y="170" font-size="10.5" fill="#5c5c5c">Při přihlášení požádáme i o kontakty</text><g><rect x="676" y="149" width="32" height="18" rx="9" fill="#2b76d2"/><circle cx="699" cy="158" r="7" fill="#ffffff"/></g><text x="396" y="204" font-weight="700" fill="#1f1f1f">Server bez adresáře</text><rect x="396" y="212" width="324" height="78" rx="8" fill="#ffffff" stroke="#b9b7ad" stroke-width="1"/><text x="408" y="230" fill="#1f1f1f">Kontakty</text><text x="408" y="246" font-size="10.5" fill="#5c5c5c">Server adresář kontaktů nenabízí</text><g opacity="0.45"><rect x="676" y="225" width="32" height="18" rx="9" fill="#c0bfbc"/><circle cx="685" cy="234" r="7" fill="#ffffff"/></g><line x1="396" y1="256" x2="720" y2="256" stroke="#e4e3df" stroke-width="1"/><text x="408" y="278" font-weight="600" fill="#2b76d2">Zadat server kontaktů ručně…</text><text x="396" y="314" font-weight="700" fill="#1f1f1f">Gmail přes GNOME Online Accounts</text><rect x="396" y="322" width="324" height="44" rx="8" fill="#ffffff" stroke="#b9b7ad" stroke-width="1"/><text x="408" y="340" fill="#1f1f1f">Kontakty</text><text x="408" y="356" font-size="10.5" fill="#5c5c5c">Spravuje je GNOME; při psaní se nabízejí</text><g opacity="0.45"><rect x="676" y="335" width="32" height="18" rx="9" fill="#c0bfbc"/><circle cx="685" cy="344" r="7" fill="#ffffff"/></g></g><rect x="380" y="64" width="356" height="318" rx="10" fill="none" stroke="#b9b7ad" stroke-width="1.25"/><circle cx="288" cy="278" r="8.5" fill="#e66100"/><text x="288" y="281.6" font-size="10" font-weight="700" text-anchor="middle" fill="#ffffff">1</text><circle cx="660" cy="158" r="8.5" fill="#e66100"/><text x="660" y="161.6" font-size="10" font-weight="700" text-anchor="middle" fill="#ffffff">2</text><circle cx="606" cy="274" r="8.5" fill="#e66100"/><text x="606" y="277.6" font-size="10" font-weight="700" text-anchor="middle" fill="#ffffff">3</text><circle cx="660" cy="344" r="8.5" fill="#e66100"/><text x="660" y="347.6" font-size="10" font-weight="700" text-anchor="middle" fill="#ffffff">4</text></svg>
