<?xml version="1.0" encoding="UTF-8"?>
<svg xmlns="http://www.w3.org/2000/svg" viewBox="0 0 760 580" role="img" aria-label="Měsíc ukazuje nejvýš dvě události na den, zbytek schová za odkaz další" font-size="11.5" font-family="Inter, Cantarell, 'Segoe UI', Helvetica, Arial, sans-serif"><rect width="100%" height="100%" fill="#ffffff"/><text x="24" y="28" font-size="15" font-weight="600" fill="#1f1f1f">Měsíc ukazuje nejvýš dvě události na den, zbytek schová za „+3 další“</text><text x="24" y="48" fill="#5c5c5c">Obsah okna v pohledu Měsíc · sidebar je stejný jako ve W1</text><g><rect x="24" y="64" width="712" height="492" rx="8" fill="none" stroke="#b9b7ad" stroke-width="1.25"/><line x1="24" y1="104" x2="736" y2="104" stroke="#b9b7ad"/></g><g><rect x="36" y="76" width="44" height="24" rx="6" fill="none" fill-opacity="1" stroke="#b9b7ad" stroke-width="1"/><rect x="86" y="76" width="20" height="24" rx="6" fill="none" fill-opacity="1" stroke="#b9b7ad" stroke-width="1"/><rect x="110" y="76" width="20" height="24" rx="6" fill="none" fill-opacity="1" stroke="#b9b7ad" stroke-width="1"/><text x="58" y="92" text-anchor="middle" fill="#1f1f1f">Dnes</text><text x="96" y="92" text-anchor="middle" fill="#1f1f1f">‹</text><text x="120" y="92" text-anchor="middle" fill="#1f1f1f">›</text><text x="142" y="93" font-size="12.5" font-weight="600" fill="#1f1f1f">Září 2026</text><rect x="440" y="76" width="52" height="24" rx="6" fill="none" fill-opacity="1" stroke="#b9b7ad" stroke-width="1"/><rect x="492" y="76" width="52" height="24" rx="6" fill="none" fill-opacity="1" stroke="#b9b7ad" stroke-width="1"/><rect x="544" y="76" width="52" height="24" rx="6" fill="#2b76d2" fill-opacity="0.15" stroke="#2b76d2" stroke-width="1.5"/><rect x="596" y="76" width="52" height="24" rx="6" fill="none" fill-opacity="1" stroke="#b9b7ad" stroke-width="1"/><text x="466" y="92" text-anchor="middle" fill="#1f1f1f">Den</text><text x="518" y="92" text-anchor="middle" fill="#1f1f1f">Týden</text><text x="570" y="92" text-anchor="middle" font-weight="600" fill="#1f1f1f">Měsíc</text><text x="622" y="92" text-anchor="middle" fill="#1f1f1f">Agenda</text><rect x="660" y="76" width="28" height="24" rx="6" fill="none" fill-opacity="1" stroke="#b9b7ad" stroke-width="1"/><rect x="696" y="76" width="28" height="24" rx="6" fill="none" fill-opacity="1" stroke="#b9b7ad" stroke-width="1"/><text x="674" y="93" text-anchor="middle" font-size="14" fill="#1f1f1f">+</text><text x="710" y="93" text-anchor="middle" font-size="14" fill="#1f1f1f">≡</text></g><g><rect x="530" y="128" width="200" height="420" fill="#ecebe7"/><line x1="30" y1="108" x2="30" y2="548" stroke="#e4e3df"/><line x1="130" y1="108" x2="130" y2="548" stroke="#e4e3df"/><line x1="230" y1="108" x2="230" y2="548" stroke="#e4e3df"/><line x1="330" y1="108" x2="330" y2="548" stroke="#e4e3df"/><line x1="430" y1="108" x2="430" y2="548" stroke="#e4e3df"/><line x1="530" y1="108" x2="530" y2="548" stroke="#e4e3df"/><line x1="630" y1="108" x2="630" y2="548" stroke="#e4e3df"/><line x1="730" y1="108" x2="730" y2="548" stroke="#e4e3df"/><line x1="30" y1="128" x2="730" y2="128" stroke="#e4e3df"/><line x1="30" y1="212" x2="730" y2="212" stroke="#e4e3df"/><line x1="30" y1="296" x2="730" y2="296" stroke="#e4e3df"/><line x1="30" y1="380" x2="730" y2="380" stroke="#e4e3df"/><line x1="30" y1="464" x2="730" y2="464" stroke="#e4e3df"/><line x1="30" y1="548" x2="730" y2="548" stroke="#e4e3df"/></g><g><text x="80" y="122" text-anchor="middle" font-size="10.5" font-weight="600" fill="#5c5c5c">Po</text><text x="180" y="122" text-anchor="middle" font-size="10.5" font-weight="600" fill="#5c5c5c">Út</text><text x="280" y="122" text-anchor="middle" font-size="10.5" font-weight="600" fill="#5c5c5c">St</text><text x="380" y="122" text-anchor="middle" font-size="10.5" font-weight="600" fill="#5c5c5c">Čt</text><text x="480" y="122" text-anchor="middle" font-size="10.5" font-weight="600" fill="#5c5c5c">Pá</text><text x="580" y="122" text-anchor="middle" font-size="10.5" font-weight="600" fill="#5c5c5c">So</text><text x="680" y="122" text-anchor="middle" font-size="10.5" font-weight="600" fill="#5c5c5c">Ne</text></g><g><text x="38" y="144" fill="#5c5c5c">31</text><text x="138" y="144" fill="#1f1f1f">1</text><text x="238" y="144" fill="#1f1f1f">2</text><text x="338" y="144" fill="#1f1f1f">3</text><text x="438" y="144" fill="#1f1f1f">4</text><text x="538" y="144" fill="#1f1f1f">5</text><text x="638" y="144" fill="#1f1f1f">6</text><text x="38" y="228" fill="#1f1f1f">7</text><text x="138" y="228" fill="#1f1f1f">8</text><text x="238" y="228" fill="#1f1f1f">9</text><text x="338" y="228" fill="#1f1f1f">10</text><text x="438" y="228" fill="#1f1f1f">11</text><text x="538" y="228" fill="#1f1f1f">12</text><text x="638" y="228" fill="#1f1f1f">13</text><text x="38" y="312" fill="#1f1f1f">14</text><text x="138" y="312" fill="#1f1f1f">15</text><text x="238" y="312" fill="#1f1f1f">16</text><text x="338" y="312" fill="#1f1f1f">17</text><text x="438" y="312" fill="#1f1f1f">18</text><text x="538" y="312" fill="#1f1f1f">19</text><text x="638" y="312" fill="#1f1f1f">20</text><text x="38" y="396" fill="#1f1f1f">21</text><text x="138" y="396" fill="#1f1f1f">22</text><text x="238" y="396" fill="#1f1f1f">23</text><text x="338" y="396" fill="#1f1f1f">24</text><text x="438" y="396" fill="#1f1f1f">25</text><text x="538" y="396" fill="#1f1f1f">26</text><text x="638" y="396" fill="#1f1f1f">27</text><text x="38" y="480" fill="#1f1f1f">28</text><text x="138" y="480" fill="#1f1f1f">29</text><circle cx="244" cy="476" r="10" fill="#2b76d2" fill-opacity="0.2" stroke="#2b76d2"/><text x="244" y="480" text-anchor="middle" font-weight="600" fill="#1f1f1f">30</text><text x="338" y="480" fill="#5c5c5c">1. 10.</text><text x="438" y="480" fill="#5c5c5c">2</text><text x="538" y="480" fill="#5c5c5c">3</text><text x="638" y="480" fill="#5c5c5c">4</text></g><g font-size="10.5"><circle cx="140" cy="158" r="3" fill="#2b76d2"/><text x="148" y="162" fill="#1f1f1f">9:00 Porada</text><rect x="334" y="151" width="192" height="15" rx="4" fill="#2b76d2" fill-opacity="0.18" stroke="#2b76d2" stroke-width="1"/><text x="340" y="162" fill="#1f1f1f">Dovolená</text><circle cx="140" cy="242" r="3" fill="#2b76d2"/><text x="148" y="246" fill="#1f1f1f">9:00 Porada</text><rect x="334" y="235" width="92" height="15" rx="4" fill="none" stroke="#2b76d2" stroke-width="1" stroke-dasharray="4 3"/><circle cx="340" cy="242" r="3" fill="#2b76d2"/><text x="348" y="246" fill="#1f1f1f">14:00 Revize</text><circle cx="140" cy="326" r="3" fill="#2b76d2"/><text x="148" y="330" fill="#1f1f1f">9:00 Porada</text><circle cx="140" cy="344" r="3" fill="#2b76d2"/><text x="148" y="348" fill="#1f1f1f">11:00 Klient</text><text x="140" y="368" font-weight="600" fill="#2b76d2">+3 další</text><rect x="334" y="319" width="92" height="15" rx="4" fill="#e8683a" fill-opacity="0.18" stroke="#e8683a" stroke-width="1"/><text x="340" y="330" fill="#1f1f1f">Narozeniny</text><circle cx="140" cy="410" r="3" fill="#2b76d2"/><text x="148" y="414" fill="#1f1f1f">9:00 Porada</text><circle cx="140" cy="494" r="3" fill="#2b76d2"/><text x="148" y="498" fill="#1f1f1f">13:00 Oběd</text><circle cx="240" cy="494" r="3" fill="#2b76d2"/><text x="248" y="498" fill="#1f1f1f">10:00 Plán</text><circle cx="240" cy="512" r="3" fill="#2b76d2"/><text x="248" y="516" fill="#1f1f1f">10:30 1:1</text><rect x="334" y="487" width="192" height="15" rx="4" fill="#2b76d2" fill-opacity="0.18" stroke="#2b76d2" stroke-width="1"/><text x="340" y="498" fill="#1f1f1f">Konference</text><rect x="534" y="487" width="92" height="15" rx="4" fill="#e8683a" fill-opacity="0.18" stroke="#e8683a" stroke-width="1"/><text x="540" y="498" fill="#1f1f1f">Narozeniny</text></g></svg>
